<svg width="1000" height="1000" viewBox="0 0 1000 1000" fill="none" xmlns="http://www.w3.org/2000/svg">
<g clip-path="url(#clip0_1_105)">
<rect width="1000" height="1000" fill="#20384F"/>
<g filter="url(#filter0_i_1_105)">
<circle cx="500" cy="500" r="375" fill="#1A2E41"/>
</g>
<path d="M837.5 664C795 753 683 875 500 875C335.5 875 216.5 774.5 162 663C350.5 606.5 292.893 637 500 637C707.107 637 727 636.5 837.5 664Z" fill="#265888"/>
<path d="M162 662.76C225.918 662.76 603.67 664 838 664C701 615 700.904 577.5 629 577.5C579.404 577.5 539.864 600.749 499.209 600.749C479.446 600.749 396.819 572.844 372.727 553L371.412 553.914C310.358 596.361 252.933 636.285 162 662.76Z" fill="#467CB0"/>
<path d="M307.763 425.304C307.763 429.98 305.759 433.877 301.751 436.994C297.855 440.111 292.733 441.67 286.387 441.67C280.041 441.67 275.031 440.223 271.357 437.328C267.683 434.433 265.846 430.203 265.846 424.636V347.482C265.846 341.915 267.739 337.573 271.524 334.456C275.31 331.339 280.375 329.78 286.721 329.78C293.179 329.78 298.3 331.227 302.085 334.122C305.871 336.905 307.763 340.579 307.763 345.144V365.852C307.763 367.856 306.316 369.248 303.421 370.027C301.863 370.472 300.304 370.695 298.745 370.695C297.187 370.695 295.628 370.528 294.069 370.194C294.403 367.522 294.57 364.683 294.57 361.677V347.482C294.57 345.367 293.847 343.752 292.399 342.639C290.952 341.414 289.059 340.802 286.721 340.802C284.383 340.802 282.491 341.414 281.043 342.639C279.707 343.752 279.039 345.367 279.039 347.482V423.968C279.039 425.972 279.707 427.586 281.043 428.811C282.491 430.036 284.383 430.648 286.721 430.648C289.059 430.648 290.952 430.091 292.399 428.978C293.847 427.753 294.57 426.083 294.57 423.968V420.294L294.069 411.777C295.628 411.443 297.187 411.276 298.745 411.276C300.304 411.276 301.863 411.499 303.421 411.944C306.316 412.723 307.763 414.115 307.763 416.119V425.304ZM359.291 371.864C359.291 367.633 358.901 363.069 358.122 358.17C361.462 357.725 365.08 357.502 368.977 357.502C370.869 357.502 371.816 358.337 371.816 360.007V426.139C371.816 428.477 372.205 430.147 372.985 431.149C373.875 432.151 375.49 432.652 377.828 432.652C377.939 435.547 377.16 437.773 375.49 439.332C373.931 440.891 371.649 441.67 368.643 441.67C364.189 441.67 361.35 439.944 360.126 436.493C356.674 439.944 352.778 441.67 348.436 441.67C344.094 441.67 340.587 440.223 337.915 437.328C335.243 434.322 333.907 430.091 333.907 424.636V372.031C333.907 369.693 333.461 368.023 332.571 367.021C331.791 366.019 330.233 365.518 327.895 365.518C327.783 362.735 328.563 360.564 330.233 359.005C332.014 357.335 334.463 356.5 337.581 356.5C340.698 356.5 342.925 357.391 344.261 359.172C345.708 360.953 346.432 363.904 346.432 368.023V424.469C346.432 428.366 348.046 430.314 351.275 430.314C352.945 430.314 354.503 429.702 355.951 428.477C357.509 427.141 358.623 425.749 359.291 424.302V371.864ZM413.991 426.306C413.991 431.65 414.381 436.103 415.16 439.666C411.82 440.334 408.202 440.668 404.305 440.668C402.412 440.668 401.466 439.833 401.466 438.163V372.031C401.466 369.693 401.021 368.023 400.13 367.021C399.351 366.019 397.792 365.518 395.454 365.518C395.343 362.623 396.066 360.397 397.625 358.838C399.295 357.279 401.633 356.5 404.639 356.5C409.092 356.5 411.876 358.727 412.989 363.18C415.772 358.727 419.725 356.5 424.846 356.5C433.975 356.5 438.54 360.898 438.54 369.693V386.393C438.54 388.286 437.204 389.566 434.532 390.234C433.196 390.679 431.749 390.902 430.19 390.902C428.743 390.902 427.295 390.735 425.848 390.401C426.182 387.952 426.349 385.335 426.349 382.552V374.035C426.349 370.361 424.679 368.524 421.339 368.524C419.78 368.524 418.333 369.248 416.997 370.695C415.661 372.142 414.659 373.757 413.991 375.538V426.306ZM478.165 409.439C474.491 411.888 472.654 416.008 472.654 421.797C472.654 427.475 474.379 430.314 477.831 430.314C481.393 430.314 484.177 428.31 486.181 424.302V404.095L478.165 409.439ZM480.002 356.5C492.471 356.5 498.706 362.011 498.706 373.033V426.139C498.706 428.477 499.095 430.147 499.875 431.149C500.765 432.151 502.38 432.652 504.718 432.652C504.829 435.547 504.05 437.773 502.38 439.332C500.821 440.891 498.539 441.67 495.533 441.67C490.857 441.67 488.018 439.944 487.016 436.493C483.564 439.944 479.501 441.67 474.825 441.67C470.149 441.67 466.419 439.889 463.636 436.326C460.852 432.763 459.461 427.976 459.461 421.964C459.461 412.835 463.302 405.932 470.984 401.256L486.181 392.238V374.202C486.181 369.526 483.954 367.188 479.501 367.188C475.159 367.188 472.988 369.804 472.988 375.037V380.548L473.489 388.397C472.041 388.731 470.538 388.898 468.98 388.898C467.532 388.898 466.141 388.675 464.805 388.23C462.133 387.562 460.797 386.282 460.797 384.389V370.695C460.797 366.242 462.522 362.79 465.974 360.341C469.536 357.78 474.212 356.5 480.002 356.5ZM565.322 427.141C565.322 431.817 563.54 435.435 559.978 437.996C556.415 440.445 551.85 441.67 546.284 441.67C540.828 441.67 536.431 440.278 533.091 437.495C529.862 434.6 528.248 430.759 528.248 425.972V368.19L523.071 369.025C522.291 366.13 521.902 363.625 521.902 361.51C521.902 359.283 522.625 358.17 524.073 358.17H528.582L530.92 342.472C531.365 340.023 533.425 338.798 537.099 338.798C538.212 338.798 539.437 338.909 540.773 339.132V358.17H555.302L563.986 357.335C564.542 360.23 564.821 362.79 564.821 365.017C564.821 367.132 564.097 368.19 562.65 368.19H540.773V423.968C540.773 426.306 541.329 428.143 542.443 429.479C543.667 430.704 545.17 431.316 546.952 431.316C551.071 431.316 553.131 428.588 553.131 423.133V410.942L552.63 403.093C554.077 402.759 555.524 402.592 556.972 402.592C558.53 402.592 559.978 402.815 561.314 403.26C563.986 403.928 565.322 405.208 565.322 407.101V427.141ZM596.251 342.973C591.463 342.973 589.07 339.8 589.07 333.454C589.07 327.108 591.463 323.935 596.251 323.935C601.038 323.935 603.432 327.108 603.432 333.454C603.432 339.8 601.038 342.973 596.251 342.973ZM585.897 358.17H602.597V426.139C602.597 428.477 602.986 430.147 603.766 431.149C604.656 432.151 606.271 432.652 608.609 432.652C608.72 435.547 607.941 437.773 606.271 439.332C604.712 440.891 602.374 441.67 599.257 441.67C596.139 441.67 593.801 440.724 592.243 438.831C590.795 436.938 590.072 433.821 590.072 429.479V368.19L584.895 369.025C584.115 366.13 583.726 363.625 583.726 361.51C583.726 359.283 584.449 358.17 585.897 358.17ZM634.174 356.5C637.291 356.5 639.518 357.391 640.854 359.172C642.301 360.953 643.025 364.961 643.025 371.196C643.025 377.319 643.804 386.56 645.363 398.918C646.922 411.276 648.647 421.407 650.54 429.312C655.661 406.489 658.222 386.282 658.222 368.691L657.888 357.836C660.003 357.391 662.007 357.168 663.9 357.168C665.904 357.168 667.685 357.391 669.244 357.836C670.914 358.281 671.749 359.395 671.749 361.176C671.749 370.639 670.636 382.886 668.409 397.916C666.182 412.946 663.677 424.97 660.894 433.988C659.669 437.996 657.665 440 654.882 440H645.029C642.246 440 640.242 437.996 639.017 433.988C636.568 425.527 634.508 415.173 632.838 402.926C631.279 390.568 630.5 380.27 630.5 372.031C630.5 369.693 630.055 368.023 629.164 367.021C628.385 366.019 626.826 365.518 624.488 365.518C624.377 362.735 625.156 360.564 626.826 359.005C628.607 357.335 631.057 356.5 634.174 356.5ZM712.461 409.439C708.787 411.888 706.95 416.008 706.95 421.797C706.95 427.475 708.675 430.314 712.127 430.314C715.689 430.314 718.473 428.31 720.477 424.302V404.095L712.461 409.439ZM714.298 356.5C726.767 356.5 733.002 362.011 733.002 373.033V426.139C733.002 428.477 733.391 430.147 734.171 431.149C735.061 432.151 736.676 432.652 739.014 432.652C739.125 435.547 738.346 437.773 736.676 439.332C735.117 440.891 732.835 441.67 729.829 441.67C725.153 441.67 722.314 439.944 721.312 436.493C717.86 439.944 713.797 441.67 709.121 441.67C704.445 441.67 700.715 439.889 697.932 436.326C695.148 432.763 693.757 427.976 693.757 421.964C693.757 412.835 697.598 405.932 705.28 401.256L720.477 392.238V374.202C720.477 369.526 718.25 367.188 713.797 367.188C709.455 367.188 707.284 369.804 707.284 375.037V380.548L707.785 388.397C706.337 388.731 704.834 388.898 703.276 388.898C701.828 388.898 700.437 388.675 699.101 388.23C696.429 387.562 695.093 386.282 695.093 384.389V370.695C695.093 366.242 696.818 362.79 700.27 360.341C703.832 357.78 708.508 356.5 714.298 356.5Z" fill="white"/>
<circle cx="326" cy="525" r="1" fill="#D9D9D9"/>
<circle cx="197" cy="533" r="1" fill="#D9D9D9"/>
<circle cx="371" cy="493" r="1" fill="#D9D9D9"/>
<circle cx="214" cy="347" r="1" fill="#D9D9D9"/>
<circle cx="373" cy="260" r="1" fill="#D9D9D9"/>
<circle cx="606" cy="494" r="1" fill="#D9D9D9"/>
<circle cx="741" cy="543" r="1" fill="#D9D9D9"/>
<circle cx="195" cy="608" r="1" fill="#D9D9D9"/>
<circle cx="389" cy="190" r="1" fill="#D9D9D9"/>
<circle cx="449" cy="497" r="1" fill="#D9D9D9"/>
<circle cx="517" cy="281" r="1" fill="#D9D9D9"/>
<circle cx="653" cy="523" r="1" fill="#D9D9D9"/>
<circle cx="847" cy="523" r="1" fill="#D9D9D9"/>
<circle cx="640" cy="285" r="1" fill="#D9D9D9"/>
<circle cx="182" cy="408" r="1" fill="#D9D9D9"/>
<circle cx="230" cy="447" r="1" fill="#D9D9D9"/>
<circle cx="707" cy="283" r="1" fill="#D9D9D9"/>
<circle cx="519" cy="226" r="1" fill="#D9D9D9"/>
<circle cx="413.5" cy="312.5" r="2.5" fill="#D9D9D9"/>
<circle cx="808.5" cy="567.5" r="2.5" fill="#D9D9D9"/>
<circle cx="288" cy="539" r="5" fill="#D9D9D9"/>
<circle cx="482.5" cy="187.5" r="2.5" fill="#D9D9D9"/>
<circle cx="631.5" cy="544.5" r="2.5" fill="#D9D9D9"/>
<circle cx="739.5" cy="470.5" r="2.5" fill="#D9D9D9"/>
<circle cx="475" cy="269" r="5" fill="#D9D9D9"/>
<circle cx="626.5" cy="264.5" r="2.5" fill="#D9D9D9"/>
<circle cx="621.5" cy="184.5" r="2.5" fill="#D9D9D9"/>
<circle cx="525" cy="503" r="5" fill="#D9D9D9"/>
<circle cx="315.5" cy="259.5" r="2.5" fill="#D9D9D9"/>
<circle cx="813.5" cy="409.5" r="2.5" fill="#D9D9D9"/>
<circle cx="776" cy="307" r="5" fill="#D9D9D9"/>
<circle cx="193.5" cy="499.5" r="2.5" fill="#D9D9D9"/>
<circle cx="487.5" cy="570.5" r="2.5" fill="#D9D9D9"/>
<circle cx="249.5" cy="309.5" r="2.5" fill="#D9D9D9"/>
<path d="M367.5 800.5C322.5 778 221.5 689.667 159 663C348.5 663 755.5 664 837.5 664C776.5 664 696.01 748.257 656.5 758.5C616 769 557 729.5 498 729.5C439 729.5 430 790 367.5 800.5Z" fill="#9AC5EE" fill-opacity="0.56"/>
<g filter="url(#filter1_d_1_105)">
<circle cx="500" cy="500" r="387.5" stroke="white" stroke-width="25" shape-rendering="crispEdges"/>
</g>
</g>
<defs>
<filter id="filter0_i_1_105" x="119" y="125" width="756" height="754" filterUnits="userSpaceOnUse" color-interpolation-filters="sRGB">
<feFlood flood-opacity="0" result="BackgroundImageFix"/>
<feBlend mode="normal" in="SourceGraphic" in2="BackgroundImageFix" result="shape"/>
<feColorMatrix in="SourceAlpha" type="matrix" values="0 0 0 0 0 0 0 0 0 0 0 0 0 0 0 0 0 0 127 0" result="hardAlpha"/>
<feMorphology radius="39" operator="erode" in="SourceAlpha" result="effect1_innerShadow_1_105"/>
<feOffset dx="-6" dy="4"/>
<feGaussianBlur stdDeviation="72.4"/>
<feComposite in2="hardAlpha" operator="arithmetic" k2="-1" k3="1"/>
<feColorMatrix type="matrix" values="0 0 0 0 0 0 0 0 0 0 0 0 0 0 0 0 0 0 0.14 0"/>
<feBlend mode="normal" in2="shape" result="effect1_innerShadow_1_105"/>
</filter>
<filter id="filter1_d_1_105" x="-200" y="-199" width="1400" height="1400" filterUnits="userSpaceOnUse" color-interpolation-filters="sRGB">
<feFlood flood-opacity="0" result="BackgroundImageFix"/>
<feColorMatrix in="SourceAlpha" type="matrix" values="0 0 0 0 0 0 0 0 0 0 0 0 0 0 0 0 0 0 127 0" result="hardAlpha"/>
<feMorphology radius="50" operator="dilate" in="SourceAlpha" result="effect1_dropShadow_1_105"/>
<feOffset dy="1"/>
<feGaussianBlur stdDeviation="125"/>
<feComposite in2="hardAlpha" operator="out"/>
<feColorMatrix type="matrix" values="0 0 0 0 0 0 0 0 0 0 0 0 0 0 0 0 0 0 0.07 0"/>
<feBlend mode="normal" in2="BackgroundImageFix" result="effect1_dropShadow_1_105"/>
<feBlend mode="normal" in="SourceGraphic" in2="effect1_dropShadow_1_105" result="shape"/>
</filter>
<clipPath id="clip0_1_105">
<rect width="1000" height="1000" fill="white"/>
</clipPath>
</defs>
</svg>
